<svg xmlns="http://www.w3.org/2000/svg" xmlns:xlink="http://www.w3.org/1999/xlink" xmlns:inkscape="http://www.inkscape.org/namespaces/inkscape" version="1.1" width="792" height="612" viewBox="0 0 792 612">
<defs>
<clipPath id="clip_0">
<path transform="matrix(.75,0,0,.75,287.98503,346.44)" d="M-44.46-168.16H333.94V43.68H-44.46Z" clip-rule="evenodd"/>
</clipPath>
</defs>
<path transform="matrix(.75,0,0,.75,0,0)" d="M0 111.04H1056V705.12H0Z" fill="#ffffff"/>
<g clip-path="url(#clip_0)">
<path transform="matrix(.75,0,0,.75,287.98503,346.44)" d="M0 0C-8.48 0-15.8-1.74-21.95-5.24-28.09-8.74-32.52-13.61-35.24-19.87-37.95-26.11-38.42-33.39-36.65-41.69-35.2-48.52-32.57-54.3-28.76-59.02-24.94-63.73-20.44-67.57-15.26-70.53-10.08-73.49-4.7-75.73 .88-77.25L-16.76-95.74-13.61-110.08H54.13L50.42-93.16H10.63L21.1-83.31C27.39-77.43 32.27-71.77 35.73-66.33 39.19-60.89 41.38-55.34 42.29-49.69 43.2-44.03 42.96-37.94 41.56-31.43 39.31-21.24 34.61-13.45 27.47-8.07 20.33-2.68 11.17 0 0 0ZM.96-16.27C6.76-16.26 11.22-17.9 14.34-21.2 17.46-24.48 19.55-28.69 20.62-33.82 21.64-38.5 21.83-42.8 21.19-46.72 20.55-50.62 19.31-54.15 17.48-57.31 15.66-60.46 13.43-63.25 10.79-65.69 3.76-63.85-2.06-60.68-6.68-56.18-11.3-51.67-14.31-46.24-15.71-39.89-16.57-35.73-16.61-31.84-15.83-28.23-15.05-24.61-13.29-21.72-10.55-19.54-7.81-17.35-3.98-16.26 .96-16.27ZM43.24-1.6 93.91-81.22 115.73-81.06 124.67-1.6H104.05L98.98-56.56 66.44-1.6H43.24ZM93.91-81.22 93.34-85.1C92.92-87.78 91.64-89.71 89.52-90.9 87.4-92.08 84.62-92.67 81.18-92.68H73.93L77.72-110.08H86.9C92.7-110.07 97.52-109.33 101.36-107.85 105.2-106.37 108.22-103.92 110.42-100.52 112.62-97.1 114.13-92.44 114.93-86.54L115.73-81.06 93.91-81.22ZM177.28 0C168.8 0 161.48-1.74 155.33-5.24 149.19-8.74 144.76-13.61 142.04-19.87 139.33-26.11 138.86-33.39 140.63-41.69 142.08-48.52 144.71-54.3 148.52-59.02 152.34-63.73 156.84-67.57 162.02-70.53 167.2-73.49 172.58-75.73 178.16-77.25L160.52-95.74 163.67-110.08H231.41L227.7-93.16H187.91L198.38-83.31C204.67-77.43 209.55-71.77 213.01-66.33 216.47-60.89 218.66-55.34 219.57-49.69 220.48-44.03 220.24-37.94 218.84-31.43 216.59-21.24 211.89-13.45 204.75-8.07 197.61-2.68 188.45 0 177.28 0ZM178.24-16.27C184.04-16.26 188.5-17.9 191.62-21.2 194.74-24.48 196.83-28.69 197.9-33.82 198.92-38.5 199.11-42.8 198.47-46.72 197.83-50.62 196.59-54.15 194.76-57.31 192.94-60.46 190.71-63.25 188.07-65.69 181.04-63.85 175.22-60.68 170.6-56.18 165.98-51.67 162.97-46.24 161.57-39.89 160.71-35.73 160.67-31.84 161.45-28.23 162.23-24.61 163.99-21.72 166.73-19.54 169.47-17.35 173.3-16.26 178.24-16.27ZM314.28 0C307.25 0 301.64-.96 297.45-2.88 293.26-4.8 290.43-7.48 288.95-10.93 287.47-14.37 287.19-18.38 288.1-22.94 288.53-24.83 289.2-27.15 290.11-29.89 291.03-32.63 292.08-35.37 293.26-38.11 294.44-40.84 295.6-43.11 296.72-44.91L247.42-1.6H227.05C231.88-8.07 236.38-15.5 240.54-23.89 244.7-32.27 247.7-40.78 249.52-49.42 250.6-54.39 250.46-58.23 249.12-60.94 247.78-63.64 245.04-65 240.9-65.01H238.48L241.95-81.12H246.78C253.28-81.11 258.61-80.2 262.77-78.38 266.93-76.56 269.79-73.7 271.35-69.8 272.91-65.89 272.99-60.79 271.59-54.51 270.89-51.3 269.93-48.03 268.69-44.7 267.46-41.36 265.85-37.82 263.86-34.09L313.47-81.12H333.93C331.68-77.92 329.4-74.38 327.09-70.49 324.78-66.59 322.56-62.49 320.44-58.19 318.32-53.88 316.42-49.48 314.72-44.98 313.03-40.48 311.75-36.06 310.89-31.74 309.77-26.58 309.92-22.68 311.34-20.05 312.76-17.41 315.78-16.1 320.4-16.11H322.65L319.19 0H314.28Z"/>
</g>
</svg>
